<svg xmlns="http://www.w3.org/2000/svg" xmlns:xlink="http://www.w3.org/1999/xlink" xmlns:lucid="lucid" width="280" height="56"><g transform="translate(-574 -410)" lucid:page-tab-id="xwNTIuizfXaW"><path d="M580 422.33a5 5 0 0 1 5-5h50a5 5 0 0 1 5 5V455a5 5 0 0 1-5 5h-50a5 5 0 0 1-5-5z" stroke="#333" fill="#50abdf"/><use xlink:href="#a" transform="matrix(1,0,0,1,585,422.33333333333337) translate(5.1666666666666785 26.88888888888887)"/><path d="M640 417.33h220V460H640z" stroke="#000" stroke-opacity="0" fill="#fff" fill-opacity="0"/><use xlink:href="#b" transform="matrix(1,0,0,1,645,422.33333333333337) translate(0 24.125)"/><use xlink:href="#c" transform="matrix(1,0,0,1,645,422.33333333333337) translate(15.466666666666665 24.125)"/><defs><path fill="#fc9432" d="M136-208V0H84v-208H4v-40h212v40h-80" id="d"/><path d="M24 0v-248h195v40H76v63h132v40H76v65h150V0H24" id="e"/><g id="a"><use transform="matrix(0.08641975308641969,0,0,0.08641975308641969,0,0)" xlink:href="#d"/><use transform="matrix(0.08641975308641969,0,0,0.08641975308641969,18.925925925925913,0)" xlink:href="#e"/></g><path fill="#fe912b" d="M20-720h720v108H434V0H326v-612H20v-108" id="f"/><path fill="#fe912b" d="M182-580h324v108H182c-12 0-22 10-22 22V0H52v-450c0-72 58-130 130-130" id="g"/><path fill="#fe912b" d="M512-580c72 0 130 58 130 130V0H182C110 0 52-58 52-130v-214h482v-106c0-12-10-22-22-22H52v-108h460zm22 472v-128H160v106c0 12 10 22 22 22h352" id="h"/><path fill="#fe912b" d="M505-770h108V0H153C81 0 23-58 23-130v-320c0-72 58-130 130-130h352v-190zM153-108h330c12 0 22-10 22-22v-320c0-12-10-22-22-22H153c-12 0-22 10-22 22v320c0 12 10 22 22 22" id="i"/><path fill="#fe912b" d="M511-580c72 0 130 58 130 130v214H159v106c0 12 10 22 22 22h460V0H181C109 0 51-58 51-130v-320c0-72 58-130 130-130h330zM159-344h374v-106c0-12-10-22-22-22H181c-12 0-22 10-22 22v106" id="j"/><path fill="#fe912b" d="M508-580c79 2 138 64 130 152H530c2-23-1-44-22-44H178c-38 4-22 69-22 106 0 12 10 22 22 22h330c72 0 130 58 130 130v84C638-58 580 0 508 0H178C99-2 40-64 48-152h108c-2 23 1 44 22 44h330c38-4 22-69 22-106 0-12-10-22-22-22H178c-72 0-130-58-130-130v-84c0-72 58-130 130-130h330" id="k"/><path d="M718-720v108H166v198h444v108H166v198h552V0H58v-720h660" id="l"/><path d="M20-450c0-72 58-130 130-130h460v810H502V0H150C78 0 20-58 20-130v-320zm108 0v320c0 12 10 22 22 22h330c12 0 22-10 22-22v-320c0-12-10-22-22-22H150c-12 0-22 10-22 22" id="m"/><path d="M535-580h108v450C643-58 585 0 513 0H183C111 0 53-58 53-130v-450h108v450c0 12 10 22 22 22h330c12 0 22-10 22-22v-450" id="n"/><path d="M52 0v-580h108V0H52zm0-770h108v108H52v-108" id="o"/><path d="M514-580c72 0 130 58 130 130v320C644-58 586 0 514 0H162v230H54v-810h460zm22 450v-320c0-12-10-22-22-22H184c-12 0-22 10-22 22v320c0 12 10 22 22 22h330c12 0 22-10 22-22" id="p"/><g id="c"><use transform="matrix(0.026666666666666665,0,0,0.026666666666666665,0,0)" xlink:href="#f"/><use transform="matrix(0.026666666666666665,0,0,0.026666666666666665,20.24,0)" xlink:href="#g"/><use transform="matrix(0.026666666666666665,0,0,0.026666666666666665,34.026666666666664,0)" xlink:href="#h"/><use transform="matrix(0.026666666666666665,0,0,0.026666666666666665,52.53333333333333,0)" xlink:href="#i"/><use transform="matrix(0.026666666666666665,0,0,0.026666666666666665,69.92,0)" xlink:href="#j"/><use transform="matrix(0.026666666666666665,0,0,0.026666666666666665,88.37333333333333,0)" xlink:href="#k"/><use transform="matrix(0.026666666666666665,0,0,0.026666666666666665,106.66666666666667,0)" xlink:href="#l"/><use transform="matrix(0.026666666666666665,0,0,0.026666666666666665,127.09333333333332,0)" xlink:href="#m"/><use transform="matrix(0.026666666666666665,0,0,0.026666666666666665,144.8,0)" xlink:href="#n"/><use transform="matrix(0.026666666666666665,0,0,0.026666666666666665,163.33333333333334,0)" xlink:href="#o"/><use transform="matrix(0.026666666666666665,0,0,0.026666666666666665,168.45333333333332,0)" xlink:href="#p"/></g></defs></g></svg>